<?xml version="1.0" encoding="UTF-8"?>
<svg id="Réteg_1" data-name="Réteg 1" xmlns="http://www.w3.org/2000/svg" viewBox="0 0 411.22 265.15">
  <defs>
    <style>
      .cls-1 {
        font-family: Harvest, Harvest;
        font-size: 44px;
      }

      .cls-1, .cls-2 {
        isolation: isolate;
      }

      .cls-1, .cls-3 {
        fill: #f8f7f7;
      }
    </style>
  </defs>
  <g>
    <rect class="cls-3" x="57.35" y="248.56" width="46.78" height="11.92"/>
    <rect class="cls-3" x="60.11" y="177.32" width="4.28" height="79.49"/>
    <rect class="cls-3" x="69.12" y="224.25" width="4.28" height="34.55"/>
    <rect class="cls-3" x="80.02" y="225.17" width="4.28" height="34.55"/>
    <rect class="cls-3" x="89.42" y="222.27" width="4.28" height="34.55"/>
    <rect class="cls-3" x="97.37" y="166.32" width="4.28" height="84.76"/>
    <polygon class="cls-3" points="69.85 200.71 62.25 198.42 70.08 189.48 80.63 190.39 69.85 200.71"/>
    <polygon class="cls-3" points="64.36 222.27 58.96 212.41 58.96 203.35 63.18 197.35 64.36 222.27"/>
    <path class="cls-3" d="M74.44,221.35c2.38,1.04-12.78-2.06-12.78-2.06l1.52-21.93,6.67,3.36s-4.71,16.58,4.59,20.63h0Z"/>
    <path class="cls-3" d="M82.69,222.27c-2.56.42,15.18-1.59,15.18-1.59l.7-28.79-8.42,9.63c1.54,1.31,4.33,18.83-7.46,20.75h0Z"/>
    <polygon class="cls-3" points="91.56 226.62 71.97 225.17 71.97 221.24 90.15 221.56 91.56 226.62"/>
    <path class="cls-3" d="M73.4,228.08s-6.03-2.62-7.11-3.52c-1.69-1.41-4.05-7.82-4.05-7.82l9.73,4.5,1.43,6.84h0Z"/>
    <path class="cls-3" d="M84.48,228.92s-6.01.95-7.61.71c-2.15-.32-7.43-3.85-7.55-3.9l9.24-2.14,5.93,5.33h0Z"/>
    <polygon class="cls-3" points="90.87 228.88 82.61 229.19 82.92 225.4 90.87 225.4 90.87 228.88"/>
    <path class="cls-3" d="M90.15,228.5s5.42-.85,6.75-2.18c1.06-1.06,1.38-7.64,1.38-7.64l-8.87.73.74,9.1h0Z"/>
    <path class="cls-3" d="M101.65,220.59l-6.85-6.75,6.2-17.71s5.04,8.52,4.82,12.23c-.24,3.95-4.26,12.5-4.17,12.23Z"/>
    <path class="cls-3" d="M90.15,201.52s-5.79-4.67-7.72-6.02c-2.72-1.91-11-6.48-11-6.48l27.1,4.19-8.38,8.31Z"/>
    <path class="cls-3" d="M100.35,191.03s-3.29-.44-5.05-2.01c-3.43-3.07-4.07-3.8-4.01-3.55l8.33,18.97.73-13.41Z"/>
    <polygon class="cls-3" points="74.69 192.78 60.11 177.32 68.74 153.71 93.35 162.08 74.69 192.78"/>
    <polygon class="cls-3" points="60.11 214.5 29.38 200.1 33.35 193.22 60.11 203.77 60.11 214.5"/>
    <polygon class="cls-3" points="104.13 214.5 139.44 200.1 134.87 193.22 104.13 203.77 104.13 214.5"/>
    <polygon class="cls-3" points="7.06 252.84 24.33 252.84 43.6 144.31 28.16 143.54 7.06 252.84"/>
    <polygon class="cls-3" points="161.76 252 144.49 252 125.23 143.47 140.67 142.71 161.76 252"/>
    <polygon class="cls-3" points="24.54 250.59 8.83 249.67 0 257.62 33.94 257.62 24.54 250.59"/>
    <polygon class="cls-3" points="145.66 251.08 161.36 250.17 170.19 258.11 136.26 258.11 145.66 251.08"/>
    <polygon class="cls-3" points="91.12 185.29 76.7 184.71 67.87 192.66 101.15 193.15 91.12 185.29"/>
    <path class="cls-3" d="M28.92,143.78l14.73.93s13.4-7.09,10.26-7.22c-12.61-.52-21.73-.34-35.89-.06-3.15.06,10.89,6.35,10.89,6.35h0Z"/>
    <path class="cls-3" d="M141.09,143.78l-14.73.93s-13.4-7.09-10.26-7.22c12.61-.52,21.73-.34,35.89-.06,3.15.06-10.89,6.35-10.89,6.35h0Z"/>
    <rect class="cls-3" x="70.5" y="114.65" width="20.79" height="75.52"/>
    <polygon class="cls-3" points="74.69 192.78 60.11 177.32 70.5 42.27 93.35 46.93 74.69 192.78"/>
    <polygon class="cls-3" points="88.78 186.85 101.65 171.94 93.24 39.9 70.11 41 88.78 186.85"/>
    <path class="cls-3" d="M99.54,38.22c0,5.74-8.83,10.39-17.66,10.39s-17.81-4.65-17.81-10.39,8.99-10.39,17.81-10.39,17.66,4.65,17.66,10.39Z"/>
    <polygon class="cls-3" points="99.54 38.98 64.08 38.22 73.71 0 91.29 0 99.54 38.98"/>
    <ellipse class="cls-3" cx="53.63" cy="18.19" rx="3.61" ry="6.42"/>
    <ellipse class="cls-3" cx="53.63" cy="37.68" rx="3.61" ry="6.42"/>
    <rect class="cls-3" x="56.09" y="15.78" width="17.54" height="4.82"/>
    <rect class="cls-3" x="54.72" y="35.81" width="17.54" height="4.82"/>
    <rect class="cls-3" x="93.35" y="15.78" width="17.54" height="4.82"/>
    <rect class="cls-3" x="95.88" y="35.81" width="17.54" height="4.82"/>
    <rect class="cls-3" x="106.42" y="12.54" width="21.55" height="10.85"/>
    <rect class="cls-3" x="106.42" y="32.25" width="21.55" height="10.85"/>
  </g>
  <g class="cls-2">
    <text class="cls-1" transform="translate(178.55 203.86)"><tspan x="0" y="0">The Brothers</tspan></text>
    <text class="cls-1" transform="translate(178.55 256.66)"><tspan x="0" y="0" xml:space="preserve">  Lionheart</tspan></text>
  </g>
</svg>